<?xml version="1.0" encoding="UTF-8" standalone="no"?>
<!-- Created with Inkscape (http://www.inkscape.org/) -->

<svg
   width="79.375mm"
   height="79.375mm"
   viewBox="0 0 79.375 79.375"
   version="1.1"
   id="svg723"
   inkscape:version="1.2.1 (ef4d3fba62, 2022-07-19, custom)"
   sodipodi:docname="paper.svg"
   inkscape:export-filename="../508da55f/paper.png"
   inkscape:export-xdpi="96"
   inkscape:export-ydpi="96"
   xmlns:inkscape="http://www.inkscape.org/namespaces/inkscape"
   xmlns:sodipodi="http://sodipodi.sourceforge.net/DTD/sodipodi-0.dtd"
   xmlns="http://www.w3.org/2000/svg"
   xmlns:svg="http://www.w3.org/2000/svg">
  <sodipodi:namedview
     id="namedview725"
     pagecolor="#505050"
     bordercolor="#ffffff"
     borderopacity="1"
     inkscape:showpageshadow="0"
     inkscape:pageopacity="0"
     inkscape:pagecheckerboard="1"
     inkscape:deskcolor="#505050"
     inkscape:document-units="mm"
     showgrid="false"
     inkscape:zoom="0.75722503"
     inkscape:cx="397.50403"
     inkscape:cy="350.62233"
     inkscape:window-width="1848"
     inkscape:window-height="1016"
     inkscape:window-x="72"
     inkscape:window-y="27"
     inkscape:window-maximized="1"
     inkscape:current-layer="layer1" />
  <defs
     id="defs720" />
  <g
     inkscape:label="Layer 1"
     inkscape:groupmode="layer"
     id="layer1">
    <rect
       class="cls-2"
       x="1.1974649"
       y="1.1974649"
       width="76.980072"
       height="76.980072"
       rx="6.8426723"
       id="rect48"
       style="fill:none;stroke:#262626;stroke-width:2.39493px;stroke-linecap:round;stroke-linejoin:round" />
    <path
       class="cls-2"
       d="m 32.714817,16.080277 h -4.297199 a 4.2869344,4.2869344 0 0 0 -4.290356,4.290356 v 36.48513"
       id="path50"
       style="fill:none;stroke:#262626;stroke-width:2.39493px;stroke-linecap:round;stroke-linejoin:round" />
    <polyline
       class="cls-2"
       points="536.06 295.1 536.06 289.25 536.06 288.82"
       id="polyline52"
       style="fill:none;stroke:#262626;stroke-width:7px;stroke-linecap:round;stroke-linejoin:round"
       transform="matrix(0.34213364,0,0,0.34213364,-131.37932,-76.295804)" />
    <path
       class="cls-2"
       d="m 32.714817,16.080277 h 23.607221 a 4.2903558,4.2903558 0 0 1 4.290355,4.290356 v 2.295716 h -8.587554"
       id="path54"
       style="fill:none;stroke:#262626;stroke-width:2.39493px;stroke-linecap:round;stroke-linejoin:round" />
    <path
       class="cls-2"
       d="m 56.322038,16.080277 a 4.2937771,4.2937771 0 0 0 -4.297199,4.290356 v 2.148599"
       id="path56"
       style="fill:none;stroke:#262626;stroke-width:2.39493px;stroke-linecap:round;stroke-linejoin:round" />
    <path
       class="cls-2"
       d="M 47.734483,63.294716 A 4.2869344,4.2869344 0 0 1 43.45097,59.004366 V 56.855763 H 19.843749 a 1.077721,1.077721 0 0 0 -1.0743,1.0743 v 1.074303 a 4.2869344,4.2869344 0 0 0 4.283513,4.29035 h 24.681521 a 4.2869344,4.2869344 0 0 0 4.290356,-4.29035 V 24.667832"
       id="path58"
       style="fill:none;stroke:#262626;stroke-width:2.39493px;stroke-linecap:round;stroke-linejoin:round" />
  </g>
</svg>
